<svg width="230" height="32" viewBox="0 0 230 32" fill="none" xmlns="http://www.w3.org/2000/svg">
<rect x="9.91553" width="32" height="32" rx="8" fill="#3B44B2"/>
<path fill-rule="evenodd" clip-rule="evenodd" d="M18.8679 8H25.9156C30.3156 8 33.9156 11.6 33.9156 16.0001V23.0477C33.9156 23.3096 33.8085 23.5477 33.6358 23.7203L33.6221 23.7336L33.6194 23.7363L33.6358 23.7203C33.6358 23.7203 32.48 20.9105 29.7486 17.5166H30.2413C30.55 17.5166 30.8025 17.2641 30.8025 16.9556V15.0444C30.8025 14.7358 30.55 14.4834 30.2413 14.4834H27.432V11.6741C27.432 11.3655 27.1796 11.113 26.8709 11.113H24.9598C24.6511 11.113 24.3987 11.3655 24.3987 11.6741V12.2515C24.0357 11.9704 23.6615 11.6927 23.2742 11.42C23.6631 11.7489 24.0372 12.0784 24.3987 12.4075V14.4833H21.5895C21.2809 14.4833 21.0283 14.7357 21.0283 15.0443V16.9555C21.0283 17.264 21.2808 17.5165 21.5895 17.5165H24.3987V20.3258C24.3987 20.6344 24.6511 20.8868 24.9598 20.8868H26.8709C27.1796 20.8868 27.432 20.6344 27.432 20.3258V17.5165H29.1023C31.9225 21.2007 32.9631 24 32.9631 24H25.9155C21.5156 24.0002 17.9155 20.4002 17.9155 16.0001V8.95241C17.9155 8.42861 18.3441 8 18.8679 8Z" fill="white"/>
<path d="M70.1754 27.418V4.88867H74.2432V27.418H70.1754ZM84.9133 27.418V4.88867H88.9811V27.418H84.9133ZM72.1154 14.0881H86.7594V17.2798H72.1154V14.0881ZM99.2322 27.7309C97.5425 27.7309 96.0614 27.3762 94.7889 26.667C93.5373 25.9577 92.5569 24.9773 91.8476 23.7257C91.1592 22.474 90.815 21.0347 90.815 19.4076C90.815 17.7804 91.1592 16.3515 91.8476 15.1207C92.5569 13.8691 93.5373 12.8991 94.7889 12.2107C96.0405 11.5014 97.5008 11.1468 99.1696 11.1468C100.755 11.1468 102.132 11.4806 103.3 12.1481C104.468 12.7948 105.376 13.7126 106.022 14.9017C106.669 16.0907 106.992 17.478 106.992 19.0634C106.992 19.3554 106.982 19.6266 106.961 19.8769C106.94 20.1272 106.909 20.3776 106.867 20.6279H93.2557V17.8743H103.832L103.018 18.6253C103.018 17.1233 102.674 15.9969 101.986 15.2459C101.297 14.4949 100.338 14.1194 99.107 14.1194C97.772 14.1194 96.7081 14.5784 95.9154 15.4962C95.1435 16.4141 94.7576 17.7387 94.7576 19.4701C94.7576 21.1807 95.1435 22.4949 95.9154 23.4128C96.7081 24.3098 97.8241 24.7583 99.2635 24.7583C100.098 24.7583 100.828 24.6018 101.454 24.2889C102.08 23.976 102.539 23.4962 102.831 22.8495H106.554C106.033 24.3515 105.146 25.5405 103.895 26.4167C102.664 27.2928 101.11 27.7309 99.2322 27.7309ZM118.71 27.418C118.606 27.0008 118.522 26.5418 118.46 26.0412C118.418 25.5405 118.397 24.9356 118.397 24.2263H118.272V16.654C118.272 15.8196 118.032 15.1937 117.552 14.7765C117.093 14.3385 116.384 14.1194 115.424 14.1194C114.486 14.1194 113.735 14.2967 113.171 14.6514C112.629 14.9851 112.295 15.4754 112.17 16.122H108.384C108.551 14.6409 109.26 13.4415 110.512 12.5236C111.763 11.6057 113.443 11.1468 115.55 11.1468C117.74 11.1468 119.398 11.6475 120.525 12.6488C121.651 13.6292 122.214 15.079 122.214 16.9982V24.2263C122.214 24.727 122.246 25.2381 122.308 25.7596C122.392 26.2811 122.507 26.8339 122.653 27.418H118.71ZM113.171 27.7309C111.565 27.7309 110.282 27.3345 109.323 26.5418C108.384 25.7283 107.915 24.6435 107.915 23.2876C107.915 21.8274 108.447 20.6696 109.51 19.8143C110.574 18.9591 112.076 18.3854 114.016 18.0933L118.992 17.3424V19.8456L114.673 20.5027C113.735 20.6487 113.025 20.9095 112.546 21.285C112.087 21.6605 111.857 22.182 111.857 22.8495C111.857 23.4545 112.076 23.9238 112.514 24.2576C112.952 24.5705 113.557 24.727 114.329 24.727C115.456 24.727 116.394 24.4454 117.145 23.8821C117.896 23.3189 118.272 22.6305 118.272 21.8169L118.71 24.2263C118.293 25.3736 117.604 26.2498 116.645 26.8547C115.706 27.4388 114.548 27.7309 113.171 27.7309ZM125.269 27.418V4.88867H129.212V27.418H125.269ZM139.624 27.7309C137.663 27.7309 136.213 27.2719 135.275 26.3541C134.357 25.4154 133.898 24.0177 133.898 22.1611V7.83L137.872 6.35933V22.255C137.872 23.0268 138.08 23.6005 138.498 23.976C138.915 24.3515 139.572 24.5392 140.469 24.5392C140.824 24.5392 141.136 24.5184 141.408 24.4766C141.7 24.4141 141.971 24.3411 142.221 24.2576V27.3241C141.971 27.4493 141.616 27.5431 141.157 27.6057C140.698 27.6892 140.187 27.7309 139.624 27.7309ZM130.831 14.5575V11.4597H142.221V14.5575H130.831ZM144.232 27.418V4.88867H148.174V27.418H144.232ZM155.434 27.418V17.3424C155.434 16.3619 155.183 15.6214 154.683 15.1207C154.182 14.6201 153.452 14.3698 152.492 14.3698C151.658 14.3698 150.907 14.5575 150.239 14.933C149.593 15.3085 149.082 15.83 148.706 16.4975C148.352 17.1651 148.174 17.9369 148.174 18.813L147.767 14.9956C148.31 13.8274 149.103 12.8991 150.146 12.2107C151.189 11.5014 152.44 11.1468 153.9 11.1468C155.632 11.1468 156.977 11.637 157.937 12.6175C158.917 13.5979 159.408 14.9017 159.408 16.5288V27.418H155.434ZM169.16 27.7309C167.617 27.7309 166.229 27.4493 164.999 26.886C163.789 26.3228 162.798 25.4884 162.026 24.3828C161.275 23.2772 160.837 21.9421 160.712 20.3776H164.78C164.967 21.7544 165.426 22.7869 166.156 23.4753C166.886 24.1637 167.857 24.5079 169.066 24.5079C170.151 24.5079 171.027 24.2055 171.695 23.6005C172.383 22.9956 172.727 22.1298 172.727 21.0034C172.727 19.8769 172.394 18.9695 171.726 18.2811C171.079 17.5927 170.057 17.2485 168.66 17.2485H166.375V14.0881H168.566C169.797 14.0881 170.704 13.7961 171.288 13.212C171.893 12.607 172.195 11.8352 172.195 10.8965C172.195 9.95776 171.924 9.20679 171.382 8.64356C170.86 8.08032 170.057 7.79871 168.973 7.79871C167.971 7.79871 167.106 8.10118 166.375 8.70614C165.666 9.29023 165.239 10.1664 165.092 11.3346H160.962C161.129 9.9369 161.557 8.73743 162.245 7.73613C162.954 6.73482 163.893 5.96299 165.061 5.42062C166.229 4.85738 167.575 4.57577 169.098 4.57577C170.6 4.57577 171.903 4.82609 173.009 5.32674C174.115 5.80653 174.97 6.49493 175.575 7.39193C176.201 8.26807 176.514 9.32152 176.514 10.5523C176.514 11.6162 176.274 12.5445 175.794 13.3372C175.314 14.1299 174.688 14.7557 173.916 15.2146C173.165 15.6527 172.373 15.8717 171.538 15.8717L171.445 15.2146C172.613 15.2146 173.614 15.4858 174.448 16.0282C175.283 16.5497 175.919 17.2589 176.357 18.1559C176.816 19.0529 177.046 20.0647 177.046 21.1911C177.046 22.5053 176.701 23.6631 176.013 24.6644C175.345 25.6448 174.417 26.4062 173.228 26.9486C172.039 27.4701 170.683 27.7309 169.16 27.7309ZM187.339 27.7309C184.481 27.7309 182.27 26.7713 180.705 24.8521C179.162 22.9121 178.39 20.1585 178.39 16.5914C178.39 14.0881 178.755 11.9395 179.485 10.1455C180.236 8.35151 181.3 6.97472 182.677 6.01514C184.074 5.05556 185.712 4.57577 187.589 4.57577C189.696 4.57577 191.417 5.14943 192.752 6.29675C194.087 7.42322 194.911 8.99818 195.224 11.0216H191.094C190.969 9.97863 190.583 9.18593 189.936 8.64356C189.31 8.08032 188.518 7.79871 187.558 7.79871C185.931 7.79871 184.7 8.49753 183.866 9.89518C183.052 11.2928 182.645 13.4415 182.645 16.3411V18.375L181.769 18.0933C181.978 17.092 182.385 16.2263 182.99 15.4962C183.594 14.7661 184.356 14.2029 185.274 13.8065C186.192 13.4102 187.203 13.212 188.309 13.212C189.748 13.212 191.01 13.5145 192.095 14.1194C193.18 14.7244 194.025 15.5692 194.63 16.654C195.255 17.7179 195.568 18.9799 195.568 20.4401C195.568 21.9004 195.224 23.1833 194.536 24.2889C193.847 25.3736 192.888 26.2185 191.657 26.8234C190.426 27.4284 188.987 27.7309 187.339 27.7309ZM187.12 24.5079C188.309 24.5079 189.289 24.1533 190.061 23.4441C190.833 22.7348 191.219 21.7335 191.219 20.4401C191.219 19.1259 190.833 18.1246 190.061 17.4362C189.289 16.727 188.288 16.3724 187.057 16.3724C185.847 16.3724 184.825 16.7166 183.991 17.4049C183.177 18.0725 182.771 19.0425 182.771 20.315C182.771 21.1703 182.969 21.9212 183.365 22.5679C183.761 23.1937 184.283 23.6735 184.93 24.0073C185.597 24.3411 186.327 24.5079 187.12 24.5079ZM206.273 27.7309C204.438 27.7309 202.811 27.2407 201.392 26.2602C199.974 25.2589 198.858 23.8821 198.044 22.1298C197.251 20.3567 196.855 18.3332 196.855 16.0594C196.855 13.7857 197.251 11.7935 198.044 10.0829C198.837 8.35151 199.942 7.00601 201.361 6.04643C202.8 5.06599 204.438 4.57577 206.273 4.57577C208.13 4.57577 209.768 5.06599 211.186 6.04643C212.605 7.00601 213.71 8.35151 214.503 10.0829C215.316 11.7935 215.723 13.7857 215.723 16.0594C215.723 18.3541 215.316 20.3776 214.503 22.1298C213.71 23.8821 212.605 25.2589 211.186 26.2602C209.768 27.2407 208.13 27.7309 206.273 27.7309ZM206.273 24.3202C207.421 24.3202 208.37 23.9551 209.121 23.225C209.872 22.4949 210.435 21.504 210.811 20.2524C211.207 19.0008 211.405 17.5927 211.405 16.0282C211.405 14.4636 211.217 13.0764 210.842 11.8665C210.466 10.6566 209.893 9.70744 209.121 9.01904C208.37 8.33065 207.421 7.98645 206.273 7.98645C205.147 7.98645 204.198 8.34108 203.426 9.05033C202.675 9.73873 202.112 10.6879 201.736 11.8978C201.361 13.1077 201.173 14.4845 201.173 16.0282C201.173 17.6136 201.361 19.0321 201.736 20.2837C202.112 21.5353 202.685 22.5262 203.457 23.2563C204.229 23.9656 205.168 24.3202 206.273 24.3202Z" fill="#1D2939"/>
</svg>
